<mxfile host="65bd71144e">
    <diagram id="mAxhdaXN15cCJ5SHKa5s" name="Page-1">
        <mxGraphModel dx="649" dy="549" grid="1" gridSize="10" guides="1" tooltips="1" connect="1" arrows="1" fold="1" page="1" pageScale="1" pageWidth="827" pageHeight="1169" math="0" shadow="0">
            <root>
                <mxCell id="0"/>
                <mxCell id="1" parent="0"/>
                <mxCell id="2" value="참석의사 확정 테이블" style="shape=table;startSize=30;container=1;collapsible=1;childLayout=tableLayout;fixedRows=1;rowLines=0;fontStyle=1;align=center;resizeLast=1;" parent="1" vertex="1">
                    <mxGeometry x="40" y="26" width="370" height="153" as="geometry"/>
                </mxCell>
                <mxCell id="3" value="" style="shape=partialRectangle;collapsible=0;dropTarget=0;pointerEvents=0;fillColor=none;points=[[0,0.5],[1,0.5]];portConstraint=eastwest;top=0;left=0;right=0;bottom=1;" parent="2" vertex="1">
                    <mxGeometry y="30" width="370" height="30" as="geometry"/>
                </mxCell>
                <mxCell id="4" value="PK" style="shape=partialRectangle;overflow=hidden;connectable=0;fillColor=none;top=0;left=0;bottom=0;right=0;fontStyle=1;" parent="3" vertex="1">
                    <mxGeometry width="30" height="30" as="geometry">
                        <mxRectangle width="30" height="30" as="alternateBounds"/>
                    </mxGeometry>
                </mxCell>
                <mxCell id="5" value="" style="shape=partialRectangle;overflow=hidden;connectable=0;fillColor=none;top=0;left=0;bottom=0;right=0;align=left;spacingLeft=6;fontStyle=5;" parent="3" vertex="1">
                    <mxGeometry x="30" width="340" height="30" as="geometry">
                        <mxRectangle width="340" height="30" as="alternateBounds"/>
                    </mxGeometry>
                </mxCell>
                <mxCell id="6" value="" style="shape=partialRectangle;collapsible=0;dropTarget=0;pointerEvents=0;fillColor=none;points=[[0,0.5],[1,0.5]];portConstraint=eastwest;top=0;left=0;right=0;bottom=0;" parent="2" vertex="1">
                    <mxGeometry y="60" width="370" height="30" as="geometry"/>
                </mxCell>
                <mxCell id="7" value="" style="shape=partialRectangle;overflow=hidden;connectable=0;fillColor=none;top=0;left=0;bottom=0;right=0;" parent="6" vertex="1">
                    <mxGeometry width="30" height="30" as="geometry">
                        <mxRectangle width="30" height="30" as="alternateBounds"/>
                    </mxGeometry>
                </mxCell>
                <mxCell id="8" value="email VARCHAR(100) NOT NULL&#10;password VARCHAR(100) NOT NULL" style="shape=partialRectangle;overflow=hidden;connectable=0;fillColor=none;top=0;left=0;bottom=0;right=0;align=left;spacingLeft=6;" parent="6" vertex="1">
                    <mxGeometry x="30" width="340" height="30" as="geometry">
                        <mxRectangle width="340" height="30" as="alternateBounds"/>
                    </mxGeometry>
                </mxCell>
                <mxCell id="9" value="" style="shape=partialRectangle;collapsible=0;dropTarget=0;pointerEvents=0;fillColor=none;points=[[0,0.5],[1,0.5]];portConstraint=eastwest;top=0;left=0;right=0;bottom=0;" parent="2" vertex="1">
                    <mxGeometry y="90" width="370" height="30" as="geometry"/>
                </mxCell>
                <mxCell id="10" value="" style="shape=partialRectangle;overflow=hidden;connectable=0;fillColor=none;top=0;left=0;bottom=0;right=0;" parent="9" vertex="1">
                    <mxGeometry width="30" height="30" as="geometry">
                        <mxRectangle width="30" height="30" as="alternateBounds"/>
                    </mxGeometry>
                </mxCell>
                <mxCell id="11" value="bridal_side tinyint NOT NULL&#10;present_number int NOT NULL" style="shape=partialRectangle;overflow=hidden;connectable=0;fillColor=none;top=0;left=0;bottom=0;right=0;align=left;spacingLeft=6;" parent="9" vertex="1">
                    <mxGeometry x="30" width="340" height="30" as="geometry">
                        <mxRectangle width="340" height="30" as="alternateBounds"/>
                    </mxGeometry>
                </mxCell>
                <mxCell id="22" value="신랑 관리 테이블" style="shape=table;startSize=30;container=1;collapsible=1;childLayout=tableLayout;fixedRows=1;rowLines=0;fontStyle=1;align=center;resizeLast=1;" parent="1" vertex="1">
                    <mxGeometry x="479" y="280" width="320" height="240" as="geometry"/>
                </mxCell>
                <mxCell id="23" value="" style="shape=partialRectangle;collapsible=0;dropTarget=0;pointerEvents=0;fillColor=none;points=[[0,0.5],[1,0.5]];portConstraint=eastwest;top=0;left=0;right=0;bottom=1;" parent="22" vertex="1">
                    <mxGeometry y="30" width="320" height="30" as="geometry"/>
                </mxCell>
                <mxCell id="24" value="PK" style="shape=partialRectangle;overflow=hidden;connectable=0;fillColor=none;top=0;left=0;bottom=0;right=0;fontStyle=1;" parent="23" vertex="1">
                    <mxGeometry width="30" height="30" as="geometry">
                        <mxRectangle width="30" height="30" as="alternateBounds"/>
                    </mxGeometry>
                </mxCell>
                <mxCell id="25" value="id int NOT NULL AUTO_INCREMENT" style="shape=partialRectangle;overflow=hidden;connectable=0;fillColor=none;top=0;left=0;bottom=0;right=0;align=left;spacingLeft=6;fontStyle=5;" parent="23" vertex="1">
                    <mxGeometry x="30" width="290" height="30" as="geometry">
                        <mxRectangle width="290" height="30" as="alternateBounds"/>
                    </mxGeometry>
                </mxCell>
                <mxCell id="29" value="" style="shape=partialRectangle;collapsible=0;dropTarget=0;pointerEvents=0;fillColor=none;points=[[0,0.5],[1,0.5]];portConstraint=eastwest;top=0;left=0;right=0;bottom=0;" parent="22" vertex="1">
                    <mxGeometry y="60" width="320" height="30" as="geometry"/>
                </mxCell>
                <mxCell id="30" value="" style="shape=partialRectangle;overflow=hidden;connectable=0;fillColor=none;top=0;left=0;bottom=0;right=0;" parent="29" vertex="1">
                    <mxGeometry width="30" height="30" as="geometry">
                        <mxRectangle width="30" height="30" as="alternateBounds"/>
                    </mxGeometry>
                </mxCell>
                <mxCell id="31" value="name VARCHAR(30) NOT NULL" style="shape=partialRectangle;overflow=hidden;connectable=0;fillColor=none;top=0;left=0;bottom=0;right=0;align=left;spacingLeft=6;" parent="29" vertex="1">
                    <mxGeometry x="30" width="290" height="30" as="geometry">
                        <mxRectangle width="290" height="30" as="alternateBounds"/>
                    </mxGeometry>
                </mxCell>
                <mxCell id="34" value="wedding_date date NOT NULL" style="shape=partialRectangle;overflow=hidden;connectable=0;fillColor=none;top=0;left=0;bottom=0;right=0;align=left;spacingLeft=6;" parent="1" vertex="1">
                    <mxGeometry x="72" y="379" width="250" height="30" as="geometry">
                        <mxRectangle width="220" height="30" as="alternateBounds"/>
                    </mxGeometry>
                </mxCell>
                <mxCell id="35" value="" style="endArrow=none;html=1;rounded=0;fontSize=12;startSize=8;endSize=8;curved=1;" parent="1" edge="1">
                    <mxGeometry width="50" height="50" relative="1" as="geometry">
                        <mxPoint x="71" y="440" as="sourcePoint"/>
                        <mxPoint x="71" y="349" as="targetPoint"/>
                    </mxGeometry>
                </mxCell>
                <mxCell id="291" style="edgeStyle=none;rounded=0;html=1;exitX=0.5;exitY=1;exitDx=0;exitDy=0;entryX=0.5;entryY=0;entryDx=0;entryDy=0;endSize=0;strokeWidth=1;startSize=0;" parent="1" source="36" target="279" edge="1">
                    <mxGeometry relative="1" as="geometry"/>
                </mxCell>
                <mxCell id="36" value="계약 관리 테이블" style="shape=table;startSize=30;container=1;collapsible=1;childLayout=tableLayout;fixedRows=1;rowLines=0;fontStyle=1;align=center;resizeLast=1;" parent="1" vertex="1">
                    <mxGeometry x="41" y="319" width="370" height="121" as="geometry"/>
                </mxCell>
                <mxCell id="37" value="" style="shape=partialRectangle;collapsible=0;dropTarget=0;pointerEvents=0;fillColor=none;points=[[0,0.5],[1,0.5]];portConstraint=eastwest;top=0;left=0;right=0;bottom=1;" parent="36" vertex="1">
                    <mxGeometry y="30" width="370" height="30" as="geometry"/>
                </mxCell>
                <mxCell id="38" value="PK" style="shape=partialRectangle;overflow=hidden;connectable=0;fillColor=none;top=0;left=0;bottom=0;right=0;fontStyle=1;" parent="37" vertex="1">
                    <mxGeometry width="30" height="30" as="geometry">
                        <mxRectangle width="30" height="30" as="alternateBounds"/>
                    </mxGeometry>
                </mxCell>
                <mxCell id="39" value="id int NOT NULL " style="shape=partialRectangle;overflow=hidden;connectable=0;fillColor=none;top=0;left=0;bottom=0;right=0;align=left;spacingLeft=6;fontStyle=5;" parent="37" vertex="1">
                    <mxGeometry x="30" width="340" height="30" as="geometry">
                        <mxRectangle width="340" height="30" as="alternateBounds"/>
                    </mxGeometry>
                </mxCell>
                <mxCell id="40" value="" style="shape=partialRectangle;collapsible=0;dropTarget=0;pointerEvents=0;fillColor=none;points=[[0,0.5],[1,0.5]];portConstraint=eastwest;top=0;left=0;right=0;bottom=0;" parent="36" vertex="1">
                    <mxGeometry y="60" width="370" height="30" as="geometry"/>
                </mxCell>
                <mxCell id="41" value="" style="shape=partialRectangle;overflow=hidden;connectable=0;fillColor=none;top=0;left=0;bottom=0;right=0;" parent="40" vertex="1">
                    <mxGeometry width="30" height="30" as="geometry">
                        <mxRectangle width="30" height="30" as="alternateBounds"/>
                    </mxGeometry>
                </mxCell>
                <mxCell id="42" value="" style="shape=partialRectangle;overflow=hidden;connectable=0;fillColor=none;top=0;left=0;bottom=0;right=0;align=left;spacingLeft=6;" parent="40" vertex="1">
                    <mxGeometry x="30" width="340" height="30" as="geometry">
                        <mxRectangle width="340" height="30" as="alternateBounds"/>
                    </mxGeometry>
                </mxCell>
                <mxCell id="43" value="" style="shape=partialRectangle;collapsible=0;dropTarget=0;pointerEvents=0;fillColor=none;points=[[0,0.5],[1,0.5]];portConstraint=eastwest;top=0;left=0;right=0;bottom=0;" parent="36" vertex="1">
                    <mxGeometry y="90" width="370" height="30" as="geometry"/>
                </mxCell>
                <mxCell id="44" value="" style="shape=partialRectangle;overflow=hidden;connectable=0;fillColor=none;top=0;left=0;bottom=0;right=0;" parent="43" vertex="1">
                    <mxGeometry width="30" height="30" as="geometry">
                        <mxRectangle width="30" height="30" as="alternateBounds"/>
                    </mxGeometry>
                </mxCell>
                <mxCell id="45" value="" style="shape=partialRectangle;overflow=hidden;connectable=0;fillColor=none;top=0;left=0;bottom=0;right=0;align=left;spacingLeft=6;" parent="43" vertex="1">
                    <mxGeometry x="30" width="340" height="30" as="geometry">
                        <mxRectangle width="340" height="30" as="alternateBounds"/>
                    </mxGeometry>
                </mxCell>
                <mxCell id="49" value="" style="endArrow=none;html=1;rounded=0;fontSize=12;startSize=8;endSize=8;curved=1;" parent="1" edge="1">
                    <mxGeometry width="50" height="50" relative="1" as="geometry">
                        <mxPoint x="70" y="180" as="sourcePoint"/>
                        <mxPoint x="70" y="130" as="targetPoint"/>
                    </mxGeometry>
                </mxCell>
                <mxCell id="50" value="방명록 테이블" style="shape=table;startSize=30;container=1;collapsible=1;childLayout=tableLayout;fixedRows=1;rowLines=0;fontStyle=1;align=center;resizeLast=1;" parent="1" vertex="1">
                    <mxGeometry x="439" y="27" width="370" height="153" as="geometry"/>
                </mxCell>
                <mxCell id="51" value="" style="shape=partialRectangle;collapsible=0;dropTarget=0;pointerEvents=0;fillColor=none;points=[[0,0.5],[1,0.5]];portConstraint=eastwest;top=0;left=0;right=0;bottom=1;" parent="50" vertex="1">
                    <mxGeometry y="30" width="370" height="30" as="geometry"/>
                </mxCell>
                <mxCell id="52" value="PK" style="shape=partialRectangle;overflow=hidden;connectable=0;fillColor=none;top=0;left=0;bottom=0;right=0;fontStyle=1;" parent="51" vertex="1">
                    <mxGeometry width="30" height="30" as="geometry">
                        <mxRectangle width="30" height="30" as="alternateBounds"/>
                    </mxGeometry>
                </mxCell>
                <mxCell id="53" value="id int NOT NULL AUTO INCREMENT" style="shape=partialRectangle;overflow=hidden;connectable=0;fillColor=none;top=0;left=0;bottom=0;right=0;align=left;spacingLeft=6;fontStyle=5;" parent="51" vertex="1">
                    <mxGeometry x="30" width="340" height="30" as="geometry">
                        <mxRectangle width="340" height="30" as="alternateBounds"/>
                    </mxGeometry>
                </mxCell>
                <mxCell id="54" value="" style="shape=partialRectangle;collapsible=0;dropTarget=0;pointerEvents=0;fillColor=none;points=[[0,0.5],[1,0.5]];portConstraint=eastwest;top=0;left=0;right=0;bottom=0;" parent="50" vertex="1">
                    <mxGeometry y="60" width="370" height="30" as="geometry"/>
                </mxCell>
                <mxCell id="55" value="" style="shape=partialRectangle;overflow=hidden;connectable=0;fillColor=none;top=0;left=0;bottom=0;right=0;fontStyle=1" parent="54" vertex="1">
                    <mxGeometry width="30" height="30" as="geometry">
                        <mxRectangle width="30" height="30" as="alternateBounds"/>
                    </mxGeometry>
                </mxCell>
                <mxCell id="56" value="" style="shape=partialRectangle;overflow=hidden;connectable=0;fillColor=none;top=0;left=0;bottom=0;right=0;align=left;spacingLeft=6;" parent="54" vertex="1">
                    <mxGeometry x="30" width="340" height="30" as="geometry">
                        <mxRectangle width="340" height="30" as="alternateBounds"/>
                    </mxGeometry>
                </mxCell>
                <mxCell id="62" value="" style="endArrow=none;html=1;rounded=0;fontSize=12;startSize=8;endSize=8;curved=1;" parent="1" edge="1">
                    <mxGeometry width="50" height="50" relative="1" as="geometry">
                        <mxPoint x="470" y="146" as="sourcePoint"/>
                        <mxPoint x="470" y="146" as="targetPoint"/>
                    </mxGeometry>
                </mxCell>
                <mxCell id="64" value="weddinghall_location VARCHAR(200) NOT NULL" style="shape=partialRectangle;overflow=hidden;connectable=0;fillColor=none;top=0;left=0;bottom=0;right=0;align=left;spacingLeft=6;" parent="1" vertex="1">
                    <mxGeometry x="72" y="409" width="330" height="30" as="geometry">
                        <mxRectangle width="220" height="30" as="alternateBounds"/>
                    </mxGeometry>
                </mxCell>
                <mxCell id="72" value="1" style="text;html=1;strokeColor=none;fillColor=none;align=center;verticalAlign=middle;whiteSpace=wrap;rounded=0;fontSize=16;" parent="1" vertex="1">
                    <mxGeometry x="224.74" y="289" width="30" height="30" as="geometry"/>
                </mxCell>
                <mxCell id="86" value="" style="shape=partialRectangle;overflow=hidden;connectable=0;fillColor=none;top=0;left=0;bottom=0;right=0;align=left;spacingLeft=6;" parent="1" vertex="1">
                    <mxGeometry x="509" y="400" width="290" height="30" as="geometry">
                        <mxRectangle width="290" height="30" as="alternateBounds"/>
                    </mxGeometry>
                </mxCell>
                <mxCell id="91" value="" style="endArrow=none;html=1;rounded=0;fontSize=12;startSize=8;endSize=8;curved=1;" parent="1" edge="1">
                    <mxGeometry width="50" height="50" relative="1" as="geometry">
                        <mxPoint x="509" y="460" as="sourcePoint"/>
                        <mxPoint x="509" y="370" as="targetPoint"/>
                    </mxGeometry>
                </mxCell>
                <mxCell id="97" value="" style="shape=partialRectangle;collapsible=0;dropTarget=0;pointerEvents=0;fillColor=none;points=[[0,0.5],[1,0.5]];portConstraint=eastwest;top=0;left=0;right=0;bottom=0;" parent="1" vertex="1">
                    <mxGeometry x="479" y="370" width="320" height="30" as="geometry"/>
                </mxCell>
                <mxCell id="98" value="" style="shape=partialRectangle;overflow=hidden;connectable=0;fillColor=none;top=0;left=0;bottom=0;right=0;" parent="97" vertex="1">
                    <mxGeometry width="30" height="30" as="geometry">
                        <mxRectangle width="30" height="30" as="alternateBounds"/>
                    </mxGeometry>
                </mxCell>
                <mxCell id="99" value="account_number VARCHAR(50) NOT NULL" style="shape=partialRectangle;overflow=hidden;connectable=0;fillColor=none;top=0;left=0;bottom=0;right=0;align=left;spacingLeft=6;" parent="97" vertex="1">
                    <mxGeometry x="30" width="290" height="30" as="geometry">
                        <mxRectangle width="290" height="30" as="alternateBounds"/>
                    </mxGeometry>
                </mxCell>
                <mxCell id="107" value="" style="endArrow=none;html=1;rounded=0;fontSize=12;startSize=8;endSize=8;curved=1;exitX=-0.002;exitY=0.082;exitDx=0;exitDy=0;exitPerimeter=0;" parent="1" edge="1">
                    <mxGeometry width="50" height="50" relative="1" as="geometry">
                        <mxPoint x="438" y="152" as="sourcePoint"/>
                        <mxPoint x="809" y="152" as="targetPoint"/>
                    </mxGeometry>
                </mxCell>
                <mxCell id="121" value="" style="endArrow=none;html=1;rounded=0;endSize=0;entryX=0.004;entryY=-0.033;entryDx=0;entryDy=0;entryPerimeter=0;" parent="1" target="97" edge="1">
                    <mxGeometry width="50" height="50" relative="1" as="geometry">
                        <mxPoint x="410" y="369" as="sourcePoint"/>
                        <mxPoint x="470" y="370" as="targetPoint"/>
                    </mxGeometry>
                </mxCell>
                <mxCell id="122" value="1" style="text;html=1;strokeColor=none;fillColor=none;align=center;verticalAlign=middle;whiteSpace=wrap;rounded=0;fontSize=16;" parent="1" vertex="1">
                    <mxGeometry x="409" y="370" width="30" height="30" as="geometry"/>
                </mxCell>
                <mxCell id="124" value="1" style="text;html=1;strokeColor=none;fillColor=none;align=center;verticalAlign=middle;whiteSpace=wrap;rounded=0;fontSize=16;" parent="1" vertex="1">
                    <mxGeometry x="454" y="370" width="30" height="30" as="geometry"/>
                </mxCell>
                <mxCell id="125" value="관리자 로그인 테이블" style="shape=table;startSize=30;container=1;collapsible=1;childLayout=tableLayout;fixedRows=1;rowLines=0;fontStyle=1;align=center;resizeLast=1;" parent="1" vertex="1">
                    <mxGeometry x="37.81" y="700" width="370" height="120" as="geometry"/>
                </mxCell>
                <mxCell id="126" value="" style="shape=partialRectangle;collapsible=0;dropTarget=0;pointerEvents=0;fillColor=none;points=[[0,0.5],[1,0.5]];portConstraint=eastwest;top=0;left=0;right=0;bottom=1;" parent="125" vertex="1">
                    <mxGeometry y="30" width="370" height="30" as="geometry"/>
                </mxCell>
                <mxCell id="127" value="PK" style="shape=partialRectangle;overflow=hidden;connectable=0;fillColor=none;top=0;left=0;bottom=0;right=0;fontStyle=1;" parent="126" vertex="1">
                    <mxGeometry width="30" height="30" as="geometry">
                        <mxRectangle width="30" height="30" as="alternateBounds"/>
                    </mxGeometry>
                </mxCell>
                <mxCell id="128" value="id int NOT NULL AUTO_INCREMENT" style="shape=partialRectangle;overflow=hidden;connectable=0;fillColor=none;top=0;left=0;bottom=0;right=0;align=left;spacingLeft=6;fontStyle=5;" parent="126" vertex="1">
                    <mxGeometry x="30" width="340" height="30" as="geometry">
                        <mxRectangle width="340" height="30" as="alternateBounds"/>
                    </mxGeometry>
                </mxCell>
                <mxCell id="129" value="" style="shape=partialRectangle;collapsible=0;dropTarget=0;pointerEvents=0;fillColor=none;points=[[0,0.5],[1,0.5]];portConstraint=eastwest;top=0;left=0;right=0;bottom=0;" parent="125" vertex="1">
                    <mxGeometry y="60" width="370" height="30" as="geometry"/>
                </mxCell>
                <mxCell id="130" value="" style="shape=partialRectangle;overflow=hidden;connectable=0;fillColor=none;top=0;left=0;bottom=0;right=0;" parent="129" vertex="1">
                    <mxGeometry width="30" height="30" as="geometry">
                        <mxRectangle width="30" height="30" as="alternateBounds"/>
                    </mxGeometry>
                </mxCell>
                <mxCell id="131" value="" style="shape=partialRectangle;overflow=hidden;connectable=0;fillColor=none;top=0;left=0;bottom=0;right=0;align=left;spacingLeft=6;" parent="129" vertex="1">
                    <mxGeometry x="30" width="340" height="30" as="geometry">
                        <mxRectangle width="340" height="30" as="alternateBounds"/>
                    </mxGeometry>
                </mxCell>
                <mxCell id="179" value="" style="endArrow=none;html=1;rounded=0;endSize=0;entryX=0;entryY=0.5;entryDx=0;entryDy=0;exitX=1;exitY=1;exitDx=0;exitDy=0;" parent="1" source="36" edge="1">
                    <mxGeometry width="50" height="50" relative="1" as="geometry">
                        <mxPoint x="350" y="530" as="sourcePoint"/>
                        <mxPoint x="480" y="605" as="targetPoint"/>
                    </mxGeometry>
                </mxCell>
                <mxCell id="180" value="1" style="text;html=1;strokeColor=none;fillColor=none;align=center;verticalAlign=middle;whiteSpace=wrap;rounded=0;fontSize=16;" parent="1" vertex="1">
                    <mxGeometry x="384" y="440" width="30" height="30" as="geometry"/>
                </mxCell>
                <mxCell id="181" value="1" style="text;html=1;strokeColor=none;fillColor=none;align=center;verticalAlign=middle;whiteSpace=wrap;rounded=0;fontSize=16;" parent="1" vertex="1">
                    <mxGeometry x="454" y="590" width="30" height="30" as="geometry"/>
                </mxCell>
                <mxCell id="185" value="email VARCHAR(20) NOT NULL" style="shape=partialRectangle;overflow=hidden;connectable=0;fillColor=none;top=0;left=0;bottom=0;right=0;align=left;spacingLeft=6;" parent="1" vertex="1">
                    <mxGeometry x="70" y="760" width="340" height="30" as="geometry">
                        <mxRectangle width="340" height="30" as="alternateBounds"/>
                    </mxGeometry>
                </mxCell>
                <mxCell id="189" value="deleted_at date " style="shape=partialRectangle;overflow=hidden;connectable=0;fillColor=none;top=0;left=0;bottom=0;right=0;align=left;spacingLeft=6;" parent="1" vertex="1">
                    <mxGeometry x="843.74" y="127" width="220" height="30" as="geometry">
                        <mxRectangle width="220" height="30" as="alternateBounds"/>
                    </mxGeometry>
                </mxCell>
                <mxCell id="190" value="updated_at date NOT NULL" style="shape=partialRectangle;overflow=hidden;connectable=0;fillColor=none;top=0;left=0;bottom=0;right=0;align=left;spacingLeft=6;" parent="1" vertex="1">
                    <mxGeometry x="844.74" y="97" width="220" height="30" as="geometry">
                        <mxRectangle width="220" height="30" as="alternateBounds"/>
                    </mxGeometry>
                </mxCell>
                <mxCell id="191" value="created_at date NOT NULL" style="shape=partialRectangle;overflow=hidden;connectable=0;fillColor=none;top=0;left=0;bottom=0;right=0;align=left;spacingLeft=6;" parent="1" vertex="1">
                    <mxGeometry x="844.74" y="67" width="220" height="30" as="geometry">
                        <mxRectangle width="220" height="30" as="alternateBounds"/>
                    </mxGeometry>
                </mxCell>
                <mxCell id="192" value="모든테이블에 포함되는 공통속성" style="text;strokeColor=none;fillColor=none;html=1;fontSize=24;fontStyle=1;verticalAlign=middle;align=center;" parent="1" vertex="1">
                    <mxGeometry x="840" y="27" width="321.74" height="40" as="geometry"/>
                </mxCell>
                <mxCell id="196" value="" style="endArrow=none;html=1;rounded=0;fontSize=12;startSize=8;endSize=8;curved=1;exitX=-0.002;exitY=0.082;exitDx=0;exitDy=0;exitPerimeter=0;" parent="1" edge="1">
                    <mxGeometry width="50" height="50" relative="1" as="geometry">
                        <mxPoint x="39.31" y="152" as="sourcePoint"/>
                        <mxPoint x="410.31" y="152" as="targetPoint"/>
                    </mxGeometry>
                </mxCell>
                <mxCell id="197" value="&lt;meta charset=&quot;utf-8&quot;&gt;&lt;span style=&quot;color: rgb(240, 240, 240); font-family: Helvetica; font-size: 12px; font-style: normal; font-variant-ligatures: normal; font-variant-caps: normal; letter-spacing: normal; orphans: 2; text-align: center; text-indent: 0px; text-transform: none; widows: 2; word-spacing: 0px; -webkit-text-stroke-width: 0px; background-color: rgb(42, 37, 47); text-decoration-thickness: initial; text-decoration-style: initial; text-decoration-color: initial; float: none; display: inline !important;&quot;&gt;FK&lt;/span&gt;" style="text;whiteSpace=wrap;html=1;fontStyle=1" parent="1" vertex="1">
                    <mxGeometry x="44" y="152" width="50" height="40" as="geometry"/>
                </mxCell>
                <mxCell id="198" value="&lt;span style=&quot;color: rgb(240, 240, 240); font-family: Helvetica; font-size: 12px; font-style: normal; font-variant-ligatures: normal; font-variant-caps: normal; letter-spacing: normal; orphans: 2; text-align: left; text-indent: 0px; text-transform: none; widows: 2; word-spacing: 0px; -webkit-text-stroke-width: 0px; background-color: rgb(42, 37, 47); text-decoration-thickness: initial; text-decoration-style: initial; text-decoration-color: initial; float: none; display: inline !important;&quot;&gt;email VARCHAR(100) NOT NULL&lt;br style=&quot;padding: 0px; margin: 0px;&quot;&gt;password VARCHAR(100) NOT NULL&lt;br&gt;content VARCHAR(300) NOT NULL&lt;/span&gt;" style="text;whiteSpace=wrap;html=1;" parent="1" vertex="1">
                    <mxGeometry x="477" y="89.75" width="220" height="56.5" as="geometry"/>
                </mxCell>
                <mxCell id="199" value="" style="endArrow=none;html=1;rounded=0;endSize=0;exitX=0.5;exitY=0;exitDx=0;exitDy=0;" parent="1" source="36" edge="1">
                    <mxGeometry width="50" height="50" relative="1" as="geometry">
                        <mxPoint x="380" y="300" as="sourcePoint"/>
                        <mxPoint x="226" y="180" as="targetPoint"/>
                    </mxGeometry>
                </mxCell>
                <mxCell id="200" value="&lt;meta charset=&quot;utf-8&quot;&gt;&lt;span style=&quot;color: rgb(240, 240, 240); font-family: Helvetica; font-size: 12px; font-style: normal; font-variant-ligatures: normal; font-variant-caps: normal; font-weight: 700; letter-spacing: normal; orphans: 2; text-align: center; text-indent: 0px; text-transform: none; widows: 2; word-spacing: 0px; -webkit-text-stroke-width: 0px; background-color: rgb(42, 37, 47); text-decoration-thickness: initial; text-decoration-style: initial; text-decoration-color: initial; float: none; display: inline !important;&quot;&gt;FK&lt;/span&gt;" style="text;whiteSpace=wrap;html=1;" parent="1" vertex="1">
                    <mxGeometry x="446" y="152" width="26" height="32" as="geometry"/>
                </mxCell>
                <mxCell id="201" value="" style="endArrow=none;html=1;rounded=0;endSize=0;" parent="1" edge="1">
                    <mxGeometry width="50" height="50" relative="1" as="geometry">
                        <mxPoint x="226" y="240" as="sourcePoint"/>
                        <mxPoint x="636" y="240" as="targetPoint"/>
                    </mxGeometry>
                </mxCell>
                <mxCell id="202" value="" style="endArrow=none;html=1;rounded=0;endSize=0;" parent="1" edge="1">
                    <mxGeometry width="50" height="50" relative="1" as="geometry">
                        <mxPoint x="636" y="239" as="sourcePoint"/>
                        <mxPoint x="636" y="180" as="targetPoint"/>
                    </mxGeometry>
                </mxCell>
                <mxCell id="203" value="m" style="text;html=1;strokeColor=none;fillColor=none;align=center;verticalAlign=middle;whiteSpace=wrap;rounded=0;fontSize=16;" parent="1" vertex="1">
                    <mxGeometry x="224.74" y="177" width="30" height="30" as="geometry"/>
                </mxCell>
                <mxCell id="204" value="m" style="text;html=1;strokeColor=none;fillColor=none;align=center;verticalAlign=middle;whiteSpace=wrap;rounded=0;fontSize=16;" parent="1" vertex="1">
                    <mxGeometry x="640.5" y="177" width="30" height="30" as="geometry"/>
                </mxCell>
                <mxCell id="206" value="&lt;meta charset=&quot;utf-8&quot;&gt;&lt;span style=&quot;color: rgb(240, 240, 240); font-family: Helvetica; font-size: 12px; font-style: normal; font-variant-ligatures: normal; font-variant-caps: normal; font-weight: 400; letter-spacing: normal; orphans: 2; text-align: left; text-indent: 0px; text-transform: none; widows: 2; word-spacing: 0px; -webkit-text-stroke-width: 0px; background-color: rgb(42, 37, 47); text-decoration-thickness: initial; text-decoration-style: initial; text-decoration-color: initial; float: none; display: inline !important;&quot;&gt;contact_number VARCHAR(13) NOT NULL&lt;/span&gt;" style="text;whiteSpace=wrap;html=1;" parent="1" vertex="1">
                    <mxGeometry x="516" y="400" width="260" height="40" as="geometry"/>
                </mxCell>
                <mxCell id="207" value="" style="endArrow=none;html=1;rounded=0;fontSize=12;startSize=8;endSize=8;curved=1;exitX=-0.002;exitY=0.082;exitDx=0;exitDy=0;exitPerimeter=0;" parent="1" edge="1">
                    <mxGeometry width="50" height="50" relative="1" as="geometry">
                        <mxPoint x="477.5" y="490" as="sourcePoint"/>
                        <mxPoint x="799.5" y="490" as="targetPoint"/>
                    </mxGeometry>
                </mxCell>
                <mxCell id="208" value="&lt;meta charset=&quot;utf-8&quot;&gt;&lt;span style=&quot;color: rgb(240, 240, 240); font-family: Helvetica; font-size: 12px; font-style: normal; font-variant-ligatures: normal; font-variant-caps: normal; font-weight: 700; letter-spacing: normal; orphans: 2; text-align: center; text-indent: 0px; text-transform: none; widows: 2; word-spacing: 0px; -webkit-text-stroke-width: 0px; background-color: rgb(42, 37, 47); text-decoration-thickness: initial; text-decoration-style: initial; text-decoration-color: initial; float: none; display: inline !important;&quot;&gt;FK&lt;/span&gt;" style="text;whiteSpace=wrap;html=1;" parent="1" vertex="1">
                    <mxGeometry x="485" y="490" width="26" height="32" as="geometry"/>
                </mxCell>
                <mxCell id="229" value="contract_id int NOT NULL" style="shape=partialRectangle;overflow=hidden;connectable=0;fillColor=none;top=0;left=0;bottom=0;right=0;align=left;spacingLeft=6;" parent="1" vertex="1">
                    <mxGeometry x="511" y="490" width="340" height="30" as="geometry">
                        <mxRectangle width="340" height="30" as="alternateBounds"/>
                    </mxGeometry>
                </mxCell>
                <mxCell id="230" value="contract_id int NOT NULL" style="shape=partialRectangle;overflow=hidden;connectable=0;fillColor=none;top=0;left=0;bottom=0;right=0;align=left;spacingLeft=6;" parent="1" vertex="1">
                    <mxGeometry x="68.18" y="152" width="250" height="30" as="geometry">
                        <mxRectangle width="220" height="30" as="alternateBounds"/>
                    </mxGeometry>
                </mxCell>
                <mxCell id="233" value="" style="endArrow=none;html=1;rounded=0;endSize=0;" parent="1" edge="1">
                    <mxGeometry width="50" height="50" relative="1" as="geometry">
                        <mxPoint x="70" y="170" as="sourcePoint"/>
                        <mxPoint x="70" y="170" as="targetPoint"/>
                    </mxGeometry>
                </mxCell>
                <mxCell id="238" value="" style="endArrow=none;html=1;rounded=0;endSize=0;" parent="1" edge="1">
                    <mxGeometry width="50" height="50" relative="1" as="geometry">
                        <mxPoint x="509" y="520" as="sourcePoint"/>
                        <mxPoint x="509" y="459" as="targetPoint"/>
                    </mxGeometry>
                </mxCell>
                <mxCell id="239" value="&lt;span style=&quot;color: rgb(240, 240, 240); font-family: Helvetica; font-size: 12px; font-style: normal; font-variant-ligatures: normal; font-variant-caps: normal; font-weight: 400; letter-spacing: normal; orphans: 2; text-align: left; text-indent: 0px; text-transform: none; widows: 2; word-spacing: 0px; -webkit-text-stroke-width: 0px; background-color: rgb(42, 37, 47); text-decoration-thickness: initial; text-decoration-style: initial; text-decoration-color: initial; float: none; display: inline !important;&quot;&gt;father_account_number VARCHAR(50)&lt;br&gt;&lt;/span&gt;" style="text;whiteSpace=wrap;html=1;" parent="1" vertex="1">
                    <mxGeometry x="516" y="430" width="254" height="40" as="geometry"/>
                </mxCell>
                <mxCell id="240" value="&lt;span style=&quot;color: rgb(240, 240, 240); font-family: Helvetica; font-size: 12px; font-style: normal; font-variant-ligatures: normal; font-variant-caps: normal; font-weight: 400; letter-spacing: normal; orphans: 2; text-align: left; text-indent: 0px; text-transform: none; widows: 2; word-spacing: 0px; -webkit-text-stroke-width: 0px; background-color: rgb(42, 37, 47); text-decoration-thickness: initial; text-decoration-style: initial; text-decoration-color: initial; float: none; display: inline !important;&quot;&gt;mother_account_number VARCHAR(50)&lt;br&gt;&lt;/span&gt;" style="text;whiteSpace=wrap;html=1;" parent="1" vertex="1">
                    <mxGeometry x="516" y="460" width="254" height="40" as="geometry"/>
                </mxCell>
                <mxCell id="260" value="신부 관리 테이블" style="shape=table;startSize=30;container=1;collapsible=1;childLayout=tableLayout;fixedRows=1;rowLines=0;fontStyle=1;align=center;resizeLast=1;" parent="1" vertex="1">
                    <mxGeometry x="480.5" y="560" width="320" height="240" as="geometry"/>
                </mxCell>
                <mxCell id="261" value="" style="shape=partialRectangle;collapsible=0;dropTarget=0;pointerEvents=0;fillColor=none;points=[[0,0.5],[1,0.5]];portConstraint=eastwest;top=0;left=0;right=0;bottom=1;" parent="260" vertex="1">
                    <mxGeometry y="30" width="320" height="30" as="geometry"/>
                </mxCell>
                <mxCell id="262" value="PK" style="shape=partialRectangle;overflow=hidden;connectable=0;fillColor=none;top=0;left=0;bottom=0;right=0;fontStyle=1;" parent="261" vertex="1">
                    <mxGeometry width="30" height="30" as="geometry">
                        <mxRectangle width="30" height="30" as="alternateBounds"/>
                    </mxGeometry>
                </mxCell>
                <mxCell id="263" value="id int NOT NULL AUTO_INCREMENT" style="shape=partialRectangle;overflow=hidden;connectable=0;fillColor=none;top=0;left=0;bottom=0;right=0;align=left;spacingLeft=6;fontStyle=5;" parent="261" vertex="1">
                    <mxGeometry x="30" width="290" height="30" as="geometry">
                        <mxRectangle width="290" height="30" as="alternateBounds"/>
                    </mxGeometry>
                </mxCell>
                <mxCell id="264" value="" style="shape=partialRectangle;collapsible=0;dropTarget=0;pointerEvents=0;fillColor=none;points=[[0,0.5],[1,0.5]];portConstraint=eastwest;top=0;left=0;right=0;bottom=0;" parent="260" vertex="1">
                    <mxGeometry y="60" width="320" height="30" as="geometry"/>
                </mxCell>
                <mxCell id="265" value="" style="shape=partialRectangle;overflow=hidden;connectable=0;fillColor=none;top=0;left=0;bottom=0;right=0;" parent="264" vertex="1">
                    <mxGeometry width="30" height="30" as="geometry">
                        <mxRectangle width="30" height="30" as="alternateBounds"/>
                    </mxGeometry>
                </mxCell>
                <mxCell id="266" value="name VARCHAR(30) NOT NULL" style="shape=partialRectangle;overflow=hidden;connectable=0;fillColor=none;top=0;left=0;bottom=0;right=0;align=left;spacingLeft=6;" parent="264" vertex="1">
                    <mxGeometry x="30" width="290" height="30" as="geometry">
                        <mxRectangle width="290" height="30" as="alternateBounds"/>
                    </mxGeometry>
                </mxCell>
                <mxCell id="267" value="" style="shape=partialRectangle;overflow=hidden;connectable=0;fillColor=none;top=0;left=0;bottom=0;right=0;align=left;spacingLeft=6;" parent="1" vertex="1">
                    <mxGeometry x="510.5" y="680" width="290" height="30" as="geometry">
                        <mxRectangle width="290" height="30" as="alternateBounds"/>
                    </mxGeometry>
                </mxCell>
                <mxCell id="268" value="" style="endArrow=none;html=1;rounded=0;fontSize=12;startSize=8;endSize=8;curved=1;" parent="1" edge="1">
                    <mxGeometry width="50" height="50" relative="1" as="geometry">
                        <mxPoint x="510.5" y="740" as="sourcePoint"/>
                        <mxPoint x="510.5" y="650" as="targetPoint"/>
                    </mxGeometry>
                </mxCell>
                <mxCell id="269" value="" style="shape=partialRectangle;collapsible=0;dropTarget=0;pointerEvents=0;fillColor=none;points=[[0,0.5],[1,0.5]];portConstraint=eastwest;top=0;left=0;right=0;bottom=0;" parent="1" vertex="1">
                    <mxGeometry x="480.5" y="650" width="320" height="30" as="geometry"/>
                </mxCell>
                <mxCell id="270" value="" style="shape=partialRectangle;overflow=hidden;connectable=0;fillColor=none;top=0;left=0;bottom=0;right=0;" parent="269" vertex="1">
                    <mxGeometry width="30" height="30" as="geometry">
                        <mxRectangle width="30" height="30" as="alternateBounds"/>
                    </mxGeometry>
                </mxCell>
                <mxCell id="271" value="account_number VARCHAR(50) NOT NULL" style="shape=partialRectangle;overflow=hidden;connectable=0;fillColor=none;top=0;left=0;bottom=0;right=0;align=left;spacingLeft=6;" parent="269" vertex="1">
                    <mxGeometry x="30" width="290" height="30" as="geometry">
                        <mxRectangle width="290" height="30" as="alternateBounds"/>
                    </mxGeometry>
                </mxCell>
                <mxCell id="272" value="&lt;meta charset=&quot;utf-8&quot;&gt;&lt;span style=&quot;color: rgb(240, 240, 240); font-family: Helvetica; font-size: 12px; font-style: normal; font-variant-ligatures: normal; font-variant-caps: normal; font-weight: 400; letter-spacing: normal; orphans: 2; text-align: left; text-indent: 0px; text-transform: none; widows: 2; word-spacing: 0px; -webkit-text-stroke-width: 0px; background-color: rgb(42, 37, 47); text-decoration-thickness: initial; text-decoration-style: initial; text-decoration-color: initial; float: none; display: inline !important;&quot;&gt;contact_number VARCHAR(13) NOT NULL&lt;/span&gt;" style="text;whiteSpace=wrap;html=1;" parent="1" vertex="1">
                    <mxGeometry x="517.5" y="680" width="260" height="40" as="geometry"/>
                </mxCell>
                <mxCell id="273" value="" style="endArrow=none;html=1;rounded=0;fontSize=12;startSize=8;endSize=8;curved=1;exitX=-0.002;exitY=0.082;exitDx=0;exitDy=0;exitPerimeter=0;" parent="1" edge="1">
                    <mxGeometry width="50" height="50" relative="1" as="geometry">
                        <mxPoint x="479" y="770" as="sourcePoint"/>
                        <mxPoint x="801" y="770" as="targetPoint"/>
                    </mxGeometry>
                </mxCell>
                <mxCell id="274" value="&lt;meta charset=&quot;utf-8&quot;&gt;&lt;span style=&quot;color: rgb(240, 240, 240); font-family: Helvetica; font-size: 12px; font-style: normal; font-variant-ligatures: normal; font-variant-caps: normal; font-weight: 700; letter-spacing: normal; orphans: 2; text-align: center; text-indent: 0px; text-transform: none; widows: 2; word-spacing: 0px; -webkit-text-stroke-width: 0px; background-color: rgb(42, 37, 47); text-decoration-thickness: initial; text-decoration-style: initial; text-decoration-color: initial; float: none; display: inline !important;&quot;&gt;FK&lt;/span&gt;" style="text;whiteSpace=wrap;html=1;" parent="1" vertex="1">
                    <mxGeometry x="486.5" y="770" width="26" height="32" as="geometry"/>
                </mxCell>
                <mxCell id="275" value="contract_id int NOT NULL" style="shape=partialRectangle;overflow=hidden;connectable=0;fillColor=none;top=0;left=0;bottom=0;right=0;align=left;spacingLeft=6;" parent="1" vertex="1">
                    <mxGeometry x="512.5" y="770" width="340" height="30" as="geometry">
                        <mxRectangle width="340" height="30" as="alternateBounds"/>
                    </mxGeometry>
                </mxCell>
                <mxCell id="276" value="" style="endArrow=none;html=1;rounded=0;endSize=0;" parent="1" edge="1">
                    <mxGeometry width="50" height="50" relative="1" as="geometry">
                        <mxPoint x="510.5" y="800" as="sourcePoint"/>
                        <mxPoint x="510.5" y="739" as="targetPoint"/>
                    </mxGeometry>
                </mxCell>
                <mxCell id="277" value="&lt;span style=&quot;color: rgb(240, 240, 240); font-family: Helvetica; font-size: 12px; font-style: normal; font-variant-ligatures: normal; font-variant-caps: normal; font-weight: 400; letter-spacing: normal; orphans: 2; text-align: left; text-indent: 0px; text-transform: none; widows: 2; word-spacing: 0px; -webkit-text-stroke-width: 0px; background-color: rgb(42, 37, 47); text-decoration-thickness: initial; text-decoration-style: initial; text-decoration-color: initial; float: none; display: inline !important;&quot;&gt;father_account_number VARCHAR(50)&lt;br&gt;&lt;/span&gt;" style="text;whiteSpace=wrap;html=1;" parent="1" vertex="1">
                    <mxGeometry x="517.5" y="710" width="254" height="40" as="geometry"/>
                </mxCell>
                <mxCell id="278" value="&lt;span style=&quot;color: rgb(240, 240, 240); font-family: Helvetica; font-size: 12px; font-style: normal; font-variant-ligatures: normal; font-variant-caps: normal; font-weight: 400; letter-spacing: normal; orphans: 2; text-align: left; text-indent: 0px; text-transform: none; widows: 2; word-spacing: 0px; -webkit-text-stroke-width: 0px; background-color: rgb(42, 37, 47); text-decoration-thickness: initial; text-decoration-style: initial; text-decoration-color: initial; float: none; display: inline !important;&quot;&gt;mother_account_number VARCHAR(50)&lt;br&gt;&lt;/span&gt;" style="text;whiteSpace=wrap;html=1;" parent="1" vertex="1">
                    <mxGeometry x="517.5" y="740" width="254" height="40" as="geometry"/>
                </mxCell>
                <mxCell id="279" value="갤러리 테이블" style="shape=table;startSize=30;container=1;collapsible=1;childLayout=tableLayout;fixedRows=1;rowLines=0;fontStyle=1;align=center;resizeLast=1;" parent="1" vertex="1">
                    <mxGeometry x="39.81" y="480" width="370" height="180" as="geometry"/>
                </mxCell>
                <mxCell id="280" value="" style="shape=partialRectangle;collapsible=0;dropTarget=0;pointerEvents=0;fillColor=none;points=[[0,0.5],[1,0.5]];portConstraint=eastwest;top=0;left=0;right=0;bottom=1;" parent="279" vertex="1">
                    <mxGeometry y="30" width="370" height="30" as="geometry"/>
                </mxCell>
                <mxCell id="281" value="PK" style="shape=partialRectangle;overflow=hidden;connectable=0;fillColor=none;top=0;left=0;bottom=0;right=0;fontStyle=1;" parent="280" vertex="1">
                    <mxGeometry width="30" height="30" as="geometry">
                        <mxRectangle width="30" height="30" as="alternateBounds"/>
                    </mxGeometry>
                </mxCell>
                <mxCell id="282" value="id int NOT NULL AUTO_INCREMENT" style="shape=partialRectangle;overflow=hidden;connectable=0;fillColor=none;top=0;left=0;bottom=0;right=0;align=left;spacingLeft=6;fontStyle=5;" parent="280" vertex="1">
                    <mxGeometry x="30" width="340" height="30" as="geometry">
                        <mxRectangle width="340" height="30" as="alternateBounds"/>
                    </mxGeometry>
                </mxCell>
                <mxCell id="283" value="" style="shape=partialRectangle;collapsible=0;dropTarget=0;pointerEvents=0;fillColor=none;points=[[0,0.5],[1,0.5]];portConstraint=eastwest;top=0;left=0;right=0;bottom=0;" parent="279" vertex="1">
                    <mxGeometry y="60" width="370" height="30" as="geometry"/>
                </mxCell>
                <mxCell id="284" value="" style="shape=partialRectangle;overflow=hidden;connectable=0;fillColor=none;top=0;left=0;bottom=0;right=0;" parent="283" vertex="1">
                    <mxGeometry width="30" height="30" as="geometry">
                        <mxRectangle width="30" height="30" as="alternateBounds"/>
                    </mxGeometry>
                </mxCell>
                <mxCell id="285" value="" style="shape=partialRectangle;overflow=hidden;connectable=0;fillColor=none;top=0;left=0;bottom=0;right=0;align=left;spacingLeft=6;" parent="283" vertex="1">
                    <mxGeometry x="30" width="340" height="30" as="geometry">
                        <mxRectangle width="340" height="30" as="alternateBounds"/>
                    </mxGeometry>
                </mxCell>
                <mxCell id="286" value="" style="endArrow=none;html=1;rounded=0;fontSize=12;startSize=8;endSize=8;curved=1;" parent="1" edge="1">
                    <mxGeometry width="50" height="50" relative="1" as="geometry">
                        <mxPoint x="40" y="630" as="sourcePoint"/>
                        <mxPoint x="410" y="630" as="targetPoint"/>
                    </mxGeometry>
                </mxCell>
                <mxCell id="287" value="title VARCHAR(100) NOT NULL" style="shape=partialRectangle;overflow=hidden;connectable=0;fillColor=none;top=0;left=0;bottom=0;right=0;align=left;spacingLeft=6;" parent="1" vertex="1">
                    <mxGeometry x="68.18" y="540" width="340" height="30" as="geometry">
                        <mxRectangle width="340" height="30" as="alternateBounds"/>
                    </mxGeometry>
                </mxCell>
                <mxCell id="288" value="&lt;span style=&quot;color: rgb(240, 240, 240); font-family: Helvetica; font-size: 12px; font-style: normal; font-variant-ligatures: normal; font-variant-caps: normal; font-weight: 400; letter-spacing: normal; orphans: 2; text-align: left; text-indent: 0px; text-transform: none; widows: 2; word-spacing: 0px; -webkit-text-stroke-width: 0px; background-color: rgb(42, 37, 47); text-decoration-thickness: initial; text-decoration-style: initial; text-decoration-color: initial; float: none; display: inline !important;&quot;&gt;image_url VARCHAR(300) NOT NULL&lt;/span&gt;" style="text;whiteSpace=wrap;html=1;" parent="1" vertex="1">
                    <mxGeometry x="72" y="570" width="278" height="40" as="geometry"/>
                </mxCell>
                <mxCell id="289" value="&lt;span style=&quot;color: rgb(240, 240, 240); font-family: Helvetica; font-size: 12px; font-style: normal; font-variant-ligatures: normal; font-variant-caps: normal; font-weight: 400; letter-spacing: normal; orphans: 2; text-align: left; text-indent: 0px; text-transform: none; widows: 2; word-spacing: 0px; -webkit-text-stroke-width: 0px; background-color: rgb(42, 37, 47); text-decoration-thickness: initial; text-decoration-style: initial; text-decoration-color: initial; float: none; display: inline !important;&quot;&gt;image_size VARCHAR(100) NOT NULL&lt;/span&gt;" style="text;whiteSpace=wrap;html=1;" parent="1" vertex="1">
                    <mxGeometry x="72" y="600" width="278" height="40" as="geometry"/>
                </mxCell>
                <mxCell id="290" value="&lt;span style=&quot;color: rgb(240, 240, 240); font-family: Helvetica; font-size: 12px; font-style: normal; font-variant-ligatures: normal; font-variant-caps: normal; font-weight: 400; letter-spacing: normal; orphans: 2; text-align: left; text-indent: 0px; text-transform: none; widows: 2; word-spacing: 0px; -webkit-text-stroke-width: 0px; background-color: rgb(42, 37, 47); text-decoration-thickness: initial; text-decoration-style: initial; text-decoration-color: initial; float: none; display: inline !important;&quot;&gt;contract_id int NOT NULL&lt;/span&gt;" style="text;whiteSpace=wrap;html=1;" parent="1" vertex="1">
                    <mxGeometry x="73.74" y="630" width="278" height="40" as="geometry"/>
                </mxCell>
                <mxCell id="294" value="&lt;meta charset=&quot;utf-8&quot;&gt;&lt;span style=&quot;color: rgb(240, 240, 240); font-family: Helvetica; font-size: 16px; font-style: normal; font-variant-ligatures: normal; font-variant-caps: normal; font-weight: 400; letter-spacing: normal; orphans: 2; text-align: center; text-indent: 0px; text-transform: none; widows: 2; word-spacing: 0px; -webkit-text-stroke-width: 0px; background-color: rgb(42, 37, 47); text-decoration-thickness: initial; text-decoration-style: initial; text-decoration-color: initial; float: none; display: inline !important;&quot;&gt;1&lt;/span&gt;&lt;br style=&quot;border-color: rgb(0, 0, 0); color: rgb(240, 240, 240); font-family: Helvetica; font-size: 16px; font-style: normal; font-variant-ligatures: normal; font-variant-caps: normal; font-weight: 400; letter-spacing: normal; orphans: 2; text-align: center; text-indent: 0px; text-transform: none; widows: 2; word-spacing: 0px; -webkit-text-stroke-width: 0px; background-color: rgb(42, 37, 47); text-decoration-thickness: initial; text-decoration-style: initial; text-decoration-color: initial;&quot;&gt;&lt;span style=&quot;color: rgb(240, 240, 240); font-family: Helvetica; font-size: 16px; font-style: normal; font-variant-ligatures: normal; font-variant-caps: normal; font-weight: 400; letter-spacing: normal; orphans: 2; text-align: center; text-indent: 0px; text-transform: none; widows: 2; word-spacing: 0px; -webkit-text-stroke-width: 0px; background-color: rgb(42, 37, 47); text-decoration-thickness: initial; text-decoration-style: initial; text-decoration-color: initial; float: none; display: inline !important;&quot;&gt;m&lt;/span&gt;" style="text;whiteSpace=wrap;html=1;" parent="1" vertex="1">
                    <mxGeometry x="230" y="436" width="50" height="60" as="geometry"/>
                </mxCell>
                <mxCell id="295" value="" style="endArrow=none;html=1;rounded=0;strokeWidth=1;startSize=0;endSize=0;entryX=0;entryY=0;entryDx=0;entryDy=0;" parent="1" edge="1">
                    <mxGeometry width="50" height="50" relative="1" as="geometry">
                        <mxPoint x="70" y="660" as="sourcePoint"/>
                        <mxPoint x="69.99999999999989" y="570" as="targetPoint"/>
                    </mxGeometry>
                </mxCell>
                <mxCell id="296" value="&lt;meta charset=&quot;utf-8&quot;&gt;&lt;span style=&quot;color: rgb(240, 240, 240); font-family: Helvetica; font-size: 12px; font-style: normal; font-variant-ligatures: normal; font-variant-caps: normal; font-weight: 700; letter-spacing: normal; orphans: 2; text-align: center; text-indent: 0px; text-transform: none; widows: 2; word-spacing: 0px; -webkit-text-stroke-width: 0px; background-color: rgb(42, 37, 47); text-decoration-thickness: initial; text-decoration-style: initial; text-decoration-color: initial; float: none; display: inline !important;&quot;&gt;FK&lt;/span&gt;" style="text;whiteSpace=wrap;html=1;" parent="1" vertex="1">
                    <mxGeometry x="44" y="630" width="26" height="32" as="geometry"/>
                </mxCell>
                <mxCell id="297" value="" style="shape=partialRectangle;overflow=hidden;connectable=0;fillColor=none;top=0;left=0;bottom=0;right=0;align=left;spacingLeft=6;" vertex="1" parent="1">
                    <mxGeometry x="70" y="58" width="250" height="30" as="geometry">
                        <mxRectangle width="220" height="30" as="alternateBounds"/>
                    </mxGeometry>
                </mxCell>
                <mxCell id="300" value="&lt;meta charset=&quot;utf-8&quot;&gt;&lt;span style=&quot;color: rgb(240, 240, 240); font-family: Helvetica; font-size: 12px; font-style: normal; font-variant-ligatures: normal; font-variant-caps: normal; font-weight: 400; letter-spacing: normal; orphans: 2; text-align: left; text-indent: 0px; text-transform: none; widows: 2; word-spacing: 0px; -webkit-text-stroke-width: 0px; background-color: rgb(42, 37, 47); text-decoration-thickness: initial; text-decoration-style: initial; text-decoration-color: initial; float: none; display: inline !important;&quot;&gt;contract_id int NOT NULL&lt;/span&gt;" style="text;whiteSpace=wrap;html=1;" vertex="1" parent="1">
                    <mxGeometry x="479" y="152" width="163.5" height="18" as="geometry"/>
                </mxCell>
                <mxCell id="302" value="" style="endArrow=none;html=1;rounded=0;fontSize=12;startSize=8;endSize=8;curved=1;" edge="1" parent="1">
                    <mxGeometry width="50" height="50" relative="1" as="geometry">
                        <mxPoint x="469" y="177" as="sourcePoint"/>
                        <mxPoint x="468.5" y="113" as="targetPoint"/>
                    </mxGeometry>
                </mxCell>
                <mxCell id="304" value="&lt;span style=&quot;text-align: left;&quot;&gt;&lt;b&gt;&lt;u&gt;id int NOT NULL AUTO INCREMENT&lt;/u&gt;&lt;/b&gt;&lt;/span&gt;" style="text;strokeColor=none;align=center;fillColor=none;html=1;verticalAlign=middle;whiteSpace=wrap;rounded=0;" vertex="1" parent="1">
                    <mxGeometry x="70" y="58" width="220" height="30" as="geometry"/>
                </mxCell>
                <mxCell id="306" value="" style="endArrow=none;html=1;rounded=0;strokeWidth=1;startSize=0;endSize=0;entryX=0;entryY=0;entryDx=0;entryDy=0;" edge="1" parent="1">
                    <mxGeometry width="50" height="50" relative="1" as="geometry">
                        <mxPoint x="68" y="820" as="sourcePoint"/>
                        <mxPoint x="68.1799999999999" y="750" as="targetPoint"/>
                    </mxGeometry>
                </mxCell>
                <mxCell id="307" value="password VARCHAR(20) NOT NULL" style="shape=partialRectangle;overflow=hidden;connectable=0;fillColor=none;top=0;left=0;bottom=0;right=0;align=left;spacingLeft=6;" vertex="1" parent="1">
                    <mxGeometry x="68.18" y="790" width="340" height="30" as="geometry">
                        <mxRectangle width="340" height="30" as="alternateBounds"/>
                    </mxGeometry>
                </mxCell>
            </root>
        </mxGraphModel>
    </diagram>
</mxfile>